<svg xmlns="http://www.w3.org/2000/svg" viewBox="0 0 512 512" role="img" aria-label="Gym Dashboard icon">
  <defs>
    <linearGradient id="bg" x1="0" y1="0" x2="0" y2="1">
      <stop offset="0" stop-color="#070708"/>
      <stop offset="1" stop-color="#0b0b0c"/>
    </linearGradient>
  </defs>

  <!-- background -->
  <rect width="512" height="512" rx="120" fill="url(#bg)"/>

  <!-- neon ring -->
  <circle cx="256" cy="256" r="150" fill="none" stroke="#7CFC00" stroke-width="32" opacity="0.95"/>
  <circle cx="256" cy="256" r="150" fill="none" stroke="#202124" stroke-width="32" opacity="0.55"
          stroke-dasharray="210 1000" stroke-linecap="round" transform="rotate(-90 256 256)"/>

  <!-- center tile -->
  <rect x="168" y="168" width="176" height="176" rx="44" fill="#0f0f10" stroke="#202124" stroke-width="6"/>

  <!-- simple "GD" mark -->
  <path d="M214 296v-80h34c24 0 41 15 41 40s-17 40-41 40h-34zm24-20h10c12 0 19-7 19-20s-7-20-19-20h-10v40z"
        fill="#f5f6f7"/>
  <path d="M298 216h24v80h-24v-80zm24 52c0 18-12 30-32 30-21 0-34-14-34-42 0-28 13-42 34-42 16 0 28 8 31 22h-24c-2-4-5-6-9-6-8 0-12 8-12 26 0 19 4 26 12 26 6 0 10-4 10-10v-2h-12v-18h36v16z"
        fill="#f5f6f7"/>
</svg>
